<mxfile host="app.diagrams.net" modified="2021-06-21T10:03:27.883Z" agent="5.0 (Macintosh; Intel Mac OS X 10_15_7) AppleWebKit/537.36 (KHTML, like Gecko) Chrome/91.0.4472.106 Safari/537.36" etag="dON9I__o88p5muo6FWxY" version="14.6.9" type="github">
  <diagram id="WjxwF0F5iPQCFj_Hcl79" name="Page-1">
    <mxGraphModel dx="1105" dy="512" grid="1" gridSize="10" guides="1" tooltips="1" connect="1" arrows="1" fold="1" page="1" pageScale="1" pageWidth="2336" pageHeight="1654" math="0" shadow="0">
      <root>
        <mxCell id="0" />
        <mxCell id="1" parent="0" />
        <mxCell id="xovsjgDe-2uqHz1bA4As-1" value="Route 53" style="outlineConnect=0;dashed=0;verticalLabelPosition=bottom;verticalAlign=top;align=center;html=1;shape=mxgraph.aws3.route_53;fillColor=#F58536;gradientColor=none;" vertex="1" parent="1">
          <mxGeometry x="360" y="160" width="70.5" height="85.5" as="geometry" />
        </mxCell>
        <mxCell id="xovsjgDe-2uqHz1bA4As-2" value="CloudFront" style="outlineConnect=0;dashed=0;verticalLabelPosition=bottom;verticalAlign=top;align=center;html=1;shape=mxgraph.aws3.cloudfront;fillColor=#F58536;gradientColor=none;" vertex="1" parent="1">
          <mxGeometry x="190" y="152.5" width="76.5" height="93" as="geometry" />
        </mxCell>
        <mxCell id="xovsjgDe-2uqHz1bA4As-3" value="Lambda" style="outlineConnect=0;dashed=0;verticalLabelPosition=bottom;verticalAlign=top;align=center;html=1;shape=mxgraph.aws3.lambda;fillColor=#F58534;gradientColor=none;" vertex="1" parent="1">
          <mxGeometry x="590" y="153" width="76.5" height="93" as="geometry" />
        </mxCell>
        <mxCell id="xovsjgDe-2uqHz1bA4As-4" value="Lambda Function" style="outlineConnect=0;dashed=0;verticalLabelPosition=bottom;verticalAlign=top;align=center;html=1;shape=mxgraph.aws3.lambda_function;fillColor=#F58534;gradientColor=none;" vertex="1" parent="1">
          <mxGeometry x="510" y="360" width="69" height="72" as="geometry" />
        </mxCell>
      </root>
    </mxGraphModel>
  </diagram>
</mxfile>
